<svg class="home__blob" viewBox="0 0 200 200" xmlns="http://www.w3.org/2000/svg" xmlns:xlink="http://www.w3.org/1999/xlink">
    <mask id="mask0" mask-type="alpha">
      <path fill="#24A148" d="M57.8,-67.4C73,-56,82.4,-36.1,85.8,-15.3C89.2,5.5,86.8,27.1,75.6,40.8C64.3,54.6,44.2,60.4,26.1,63.3C8.1,
      66.2,-8,66.2,-21.1,60.4C-34.3,54.6,-44.5,43.1,-51.6,30.1C-58.6,17.2,-62.4,2.8,-62.9,-14C-63.4,-30.8,-60.7,-49.9,-49.6,-62C-38.6,
      -74.2,-19.3,-79.3,1,-80.4C21.2,-81.6,42.5,-78.8,57.8,-67.4Z" transform="translate(100 100)" />
    </mask>
    <g mask="url(#mask0)">
        <path d="M190.312 36.4879C206.582 62.1187 201.309 102.826 182.328 134.186C163.346 
        165.547 130.807 187.559 100.226 186.353C69.6454 185.297 41.0228 161.023 21.7403 
        129.362C2.45775 97.8511 -7.48481 59.1033 6.67581 34.5279C20.9871 10.1032 59.7028 
        -0.149132 97.9666 0.00163737C136.23 0.303176 174.193 10.857 190.312 36.4879Z"/>
        <image class="home__blob-img" x='12' y= '16.5' xlink:href="assets/img/perfil.png"/>
    </g>
</svg>